<?xml version="1.0" encoding="UTF-8" standalone="no"?>
<svg
   class="h-8"
   viewBox="0 0 28 24"
   fill="none"
   version="1.1"
   id="svg1"
   sodipodi:docname="logo.svg"
   inkscape:version="1.3.2 (1:1.3.2+202311252150+091e20ef0f)"
   xml:space="preserve"
   xmlns:inkscape="http://www.inkscape.org/namespaces/inkscape"
   xmlns:sodipodi="http://sodipodi.sourceforge.net/DTD/sodipodi-0.dtd"
   xmlns="http://www.w3.org/2000/svg"
   xmlns:svg="http://www.w3.org/2000/svg"><defs
     id="defs1" /><sodipodi:namedview
     id="namedview1"
     pagecolor="#505050"
     bordercolor="#eeeeee"
     borderopacity="1"
     inkscape:showpageshadow="0"
     inkscape:pageopacity="0"
     inkscape:pagecheckerboard="0"
     inkscape:deskcolor="#d1d1d1"
     inkscape:zoom="13.359268"
     inkscape:cx="19.312436"
     inkscape:cy="5.202381"
     inkscape:window-width="1920"
     inkscape:window-height="1043"
     inkscape:window-x="1366"
     inkscape:window-y="0"
     inkscape:window-maximized="1"
     inkscape:current-layer="g24"
     showguides="true"><sodipodi:guide
       position="14.137068,29.347401"
       orientation="1,0"
       id="guide3"
       inkscape:locked="false" /></sodipodi:namedview><g
     id="g24"
     transform="matrix(0.60815389,0,0,0.70507781,11.580107,-25.210227)"
     inkscape:export-filename="../clarek-crm-frontend/public/logo192.png"
     inkscape:export-xdpi="29.477751"
     inkscape:export-ydpi="29.477751"><g
       id="g1"
       transform="matrix(0.45002637,0,0,0.45002637,-2.7494661,13.163265)"><path
         id="path1"
         style="fill:#6f916f"
         d="m 14.951448,75.867771 c -3.055692,0 -6.0241449,1.022401 -8.4316399,2.904297 -2.4074651,1.881856 -4.1157471,4.515174 -4.8535157,7.480469 h 1.1992188 c 2.024296,-0.0298 4.007025,0.575671 5.6699219,1.730468 0.01873,0.01356 0.0395,0.02404 0.05859,0.03711 -0.01909,0.01307 -0.03986,0.02355 -0.05859,0.03711 -1.6628969,1.154797 -3.6456259,1.760268 -5.6699219,1.730468 H 1.6662924 c 0.7377686,2.965294 2.4460506,5.598613 4.8535157,7.480469 2.407495,1.881896 5.3759479,2.904298 8.4316399,2.904298 3.055694,0 6.024147,-1.022402 8.431641,-2.904298 2.407496,-1.881856 4.115716,-4.515175 4.853516,-7.480469 h -1.201172 c -2.024296,0.0298 -4.007026,-0.575671 -5.669922,-1.730468 -0.01882,-0.01362 -0.03953,-0.02398 -0.05859,-0.03711 0.01906,-0.01312 0.03978,-0.02349 0.05859,-0.03711 1.662896,-1.154797 3.645626,-1.760268 5.669922,-1.730468 h 1.201172 c -0.7378,-2.965295 -2.44602,-5.598613 -4.853516,-7.480469 -2.407494,-1.881896 -5.375947,-2.904297 -8.431641,-2.904297 z m 0,10.384766 c 2.021596,0 3.996231,0.602372 5.673829,1.730468 0.01873,0.01356 0.0395,0.02404 0.05859,0.03711 -0.01909,0.01307 -0.03986,0.02355 -0.05859,0.03711 -1.677598,1.128096 -3.652233,1.730468 -5.673829,1.730468 -2.021594,0 -3.998184,-0.602372 -5.6757809,-1.730468 -0.01882,-0.01362 -0.03953,-0.02398 -0.05859,-0.03711 0.01906,-0.01312 0.03978,-0.02349 0.05859,-0.03711 1.6775969,-1.128096 3.6541869,-1.730468 5.6757809,-1.730468 z" /><path
         id="path2"
         style="fill:#0000ff"
         d="m 14.951449,81.867771 c -3.055696,0 -6.0241437,1.022399 -8.4316417,2.904297 -2.407467,1.881858 -4.115746,4.515172 -4.853515,7.480469 h 1.199219 c 2.024298,-0.0298 4.007023,0.57567 5.669921,1.730468 0.096,0.0695 0.196982,0.132454 0.300782,0.189454 h 0.140625 c 0.1038,-0.057 0.202828,-0.119954 0.298828,-0.189454 1.6775987,-1.128098 3.6541847,-1.730468 5.6757817,-1.730468 2.021597,0 3.996229,0.60237 5.673828,1.730468 0.096,0.0695 0.196981,0.132454 0.300781,0.189454 h 0.140625 c 0.1038,-0.057 0.202828,-0.119954 0.298828,-0.189454 1.662898,-1.154798 3.645624,-1.760268 5.669922,-1.730468 h 1.201172 C 27.498806,89.28724 25.790588,86.653926 23.383089,84.772068 20.975592,82.89017 18.007146,81.867771 14.951449,81.867771 Z" /><text
         xml:space="preserve"
         style="font-style:normal;font-variant:normal;font-weight:normal;font-stretch:normal;font-size:20.896px;font-family:BoomBox;-inkscape-font-specification:BoomBox;fill:#916f7c;fill-opacity:1;stroke-width:1.249;stroke-dasharray:none"
         x="16.293957"
         y="65.767082"
         id="text3"
         transform="scale(0.66806827,1.496853)"><tspan
           sodipodi:role="line"
           id="tspan3"
           x="16.293957"
           y="65.767082"
           style="font-style:normal;font-variant:normal;font-weight:normal;font-stretch:normal;font-family:'Britannic Bold';-inkscape-font-specification:'Britannic Bold, ';fill:#916f7c;fill-opacity:1;stroke-width:1.249;stroke-dasharray:none">L</tspan></text><ellipse
         style="fill:#0d9488;fill-opacity:1;stroke-width:1.36606;stroke-dasharray:none"
         id="path20"
         cx="14.951448"
         cy="88.020119"
         rx="51.153645"
         ry="37.818668" /><path
         id="text21"
         style="font-style:normal;font-variant:normal;font-weight:normal;font-stretch:normal;font-size:144.241px;font-family:'Britannic Bold';-inkscape-font-specification:'Britannic Bold, ';fill:#ffffff;fill-opacity:1;stroke-width:11.5234;stroke-dasharray:none"
         d="M 40.374434,62.051029 H -4.4677262 -10.471536 v 51.936171 0.002 h 50.84597 V 102.95891 H -4.4677262 V 73.081861 H 40.374434 Z" /><text
         xml:space="preserve"
         style="font-style:normal;font-variant:normal;font-weight:normal;font-stretch:normal;font-size:42.1162px;font-family:'CandyBits BT';-inkscape-font-specification:'CandyBits BT';fill:#ffffff;fill-opacity:1;stroke-width:3.48851;stroke-dasharray:none"
         x="-2.888299"
         y="105.49998"
         id="text22"><tspan
           sodipodi:role="line"
           id="tspan22"
           x="-2.888299"
           y="105.49998"
           style="font-style:normal;font-variant:normal;font-weight:normal;font-stretch:normal;font-family:'CandyBits BT';-inkscape-font-specification:'CandyBits BT';stroke-width:3.48851">K</tspan></text></g></g></svg>
